<?xml version="1.0" encoding="UTF-8"?>
<!DOCTYPE svg  PUBLIC '-//W3C//DTD SVG 1.1//EN'  'http://www.w3.org/Graphics/SVG/1.1/DTD/svg11.dtd'>
<svg version="1.1" viewBox="0 0 813 691" xmlns="http://www.w3.org/2000/svg">
<path d="m479.56 0q0.25 0 0.5 0 4.41 0.74 6.38 4.06 3.48 5.88 1.77 13.24-0.95 4.05-2.55 7.88-2.07 4.95-3.51 10.11-3.55 12.69-5.87 25.66a1.64 0.88-29.9 0 1-0.49 0.79q-0.49 0.47-0.15 0.93a1.21 0.72-8.5 0 0 0.86 0.35q9.25 0.38 18.5 0.23 6.74 0.33 17 2.75 10.67 2.52 17.19 9.81 5.46 6.11 7.87 11.88 5.21 8.97 9.17 18.57 2.2 5.34-2.54 8.93-4.04 3.05-8.5 1.12-10.88-1.22-21.4-4.19-9.55-2.7-19.29-4.62-12.82-3.44-26.97-8.06a1.25 1.24-79.8 0 0-1.63 1.14q-0.73 22.64-0.16 45.92a1.54 1.53-0.6 0 0 1.54 1.5h18.74q2.33 0 4.13 1.49 7.72 6.38 9.54 16.57 2.57 10.83 4.75 21.75 3.14 10.77 5.14 21.8 0.49 2.69 0.41 4.81-0.08 2.43-0.49 4.83-0.11 8.31-5.22 14.86a0.76 0.76 28.6 0 0 0.35 1.19q4.11 1.45 8.48 2.53 5.37 1.34 8.5 2.46 7.79 2.79 15.44 5.72 1.94 0.74 3.37 2.25 6.73 7.13 12.37 14.68 9.88 13.21 9.89 13.23 14.13 18.1 26.98 37.1a1.15 1.14-35.4 0 0 1.64 0.27q4.74-3.56 8.64-5.85 12.56-7.37 24.87-15.13 13.55-9.24 27.69-17.56 25.58-16.24 51.3-32.26 2.34-1.46 5.55-3.93 3.5-2.68 5.71-3.75 2.4-1.16 3.74-2.62 0.67-0.74 1.21-1.02 0.73-0.37 1.51-0.64 1.51-0.53 2.05-1.18 1.55-1.89 0.14-4.49-0.75-1.37-1.65-2.67-1.23-1.8 0.34-3.09l5.4-4.46q1.61-1.33 0.23-2.75-2.98-3.04-5.55-7.26a0.72 0.71-37.6 0 1 0.12-0.89q2.69-2.53 5.43-3.57a0.84 0.75-31.9 0 1 0.86 0.15l6.68 6.76a1.12 0.95 50.1 0 0 1.29 0.22l8.14-5.29a1.08 0.95 52.3 0 0 0.1-1.53l-5.04-5.8a1.48 1.31-46.9 0 1 0.05-1.8q2.38-2.97 5.19-4.41a0.71 0.65 52.5 0 1 0.79 0.14l6.74 6.53a1.08 1.05-40.5 0 0 1.34 0.09l8.41-5.75a1.08 1.04 54.5 0 0 0.22-1.52l-4.51-6.06a0.75 0.67 49.8 0 1 0.02-0.94l4.09-3.99a1.32 1.04 45.1 0 1 1.65 0.2l6.21 6.09a1.81 1.76-41.4 0 0 2.34 0.11q1.92-1.49 4.67-2.24a1.53 1.48 45.9 0 1 0.94 0.03q6.76 2.38 12.85 7.53 5.23 4.42 8.38 8.12 2.66 5.32 6.05 10.22 3.49 5.04 5.15 10.98 0.53 1.92 1.36 3.74 0.65 3.74-2.31 5.69-24.67 17.65-49.67 34.82-2.36 1.62-4.47 3.56-1.34 1.24-2.91 0.32-1.5-0.88-3.06-1.99-0.06-0.04-1.96-2-1.49-1.53-3.81-0.34-47.83 31.3-96.56 61.19-0.66 0.4-29.53 20.28a0.57 0.57-31.5 0 0-0.18 0.73q1.74 3.38 6.15 10.55 4.95 8.07 8.41 18.08 1.11 3.23 2.61 9.17 1.89 7.53 2.54 9.19 2.66 6.77 3.51 14 0.78 6.56 2.24 13 0.67 16.69-1.75 36.25-5.72 46.27-11.2 81.86-1.97 12.79-2.89 19.8-2.32 17.77-4.16 35.59-2.08 14.78-4.5 29.5-3.66 14.12-5.77 28.54-1.21 8.33-2.69 14.8-1.71 7.47-3.21 14.69-0.36 1.73-2.13 1.72-70.04-0.17-139.7 0.19-8.75 0.05-20 0.28-39.25 0.79-78.5 0.6-8.67-0.04-20.75-0.82-7.19-0.47-13-2-10.46-0.21-20.07-3.63-7.75-2.77-16.68-7.52-8.12-4.33-15.14-10.46-9.86-8.62-17.38-19.26a1.57 1.57-24.9 0 0-1.7-0.62q-33.27 8.77-66.75 15.93-8.77 1.88-19.4 4.81-12.83 3.54-25.84 6.44-10.03 2.23-19.73 5.62-3.68 1.03-5.75 2.5-6.48 4.62-12.5 6.75-3.54 1.26-23.73 6.76-13.2 3.6-19.55 3.92-11.78 0.6-23.22-3.4-8.39-2.94-17.03-4.96-6.67-1.56-13.53-1.13-7.64-1.63-14.75-4.81 0-0.75 0-1.5 4.21-3.45 8.75-6.44 4.14-4.17 9.31-6.94 5.32-2.62 10.59-5.33 7.1-3.65 13.66-8.17 6.71-2.4 13.69-3.82 2.69-0.55 4.81-1.78a2.18 2.18-50.6 0 1 1.8-0.18q4.6 1.56 11.45-0.07a0.22 0.21 57.2 0 1 0.2 0.05q2.15 1.83 5.53 0.2a0.88 0.88-37.6 0 1 0.94 0.12q1.12 0.91 2.7 0.79 1.59-0.11 1.64-0.11 5.72 0.06 11.38 0.79 5.33 0.69 11.26 1.59 11.1 1.69 20.48 5.67 2.82 1.2 5.06-0.06 27.6-7.59 55.5-13.99 7.4-1.69 14.71-3.69 10.08-2.75 14.67-3.84 17.14-4.06 34.38-7.73a1.21 1.21-14.7 0 0 0.9-1.54q-1.72-5.55-3.34-11.31-1.13-4.05-1.06-7.95 0.17-8.39 1.41-16.7a1.85 1.66-54.5 0 0-0.11-0.96q-1.56-3.64-4.33-6.52-11.63-12.11-19.14-26.91-4.51-8.89-7.98-17.03-3.46-8.1-6.11-17.83-0.72-2.64-1.02-4.47-0.68-4.05-0.78-4.5-2.94-12.4-2.51-23.84 0.19-5.11-0.24-7.68-1.31-7.89-3.39-14.07-1.06-3.15-1.26-6.05-0.23-3.2-0.24-3.27-1.89-17.71 2.44-34.78 3.38-13.29 3.51-13.82 6.99-29.01 25.49-54.52 23.37-32.23 38.19-50.81 4.91-6.16 15.34-19.91 4.7-6.18 12.51-15.59 10.01-12.04 19.15-24.75 8.91-10.1 12.12-12.88 4.33-3.74 8.56-6.51a2.88 2.88-17.8 0 0 1.32-2.42l0.06-109.99a1.11 1.1 81.5 0 0-1.43-1.06q-12.37 3.87-24.35 6.87-13.51 3.38-19.35 4.98-10.87 2.99-21.73 5.78-2.38 0.62-4.09-1.16-1.84-1.91-2-4.3-0.03-0.56 0.44-4.5 0.85-7.1 2.76-12.75 1.92-5.7 6.5-11 2.51-4.07 5.6-7.69 3.29-3.87 7.23-6.02 6.25-3.41 13.36-4.26 8.56-1.02 8.56-1.02 12.82-2.22 15.25-2.26 5.36-0.09 10.46-1.66a0.43 0.41-23.5 0 0 0.25-0.6q-0.41-0.71-1.01-1.28-0.72-0.68-1-1.25-3.06-6.19-4.78-12.84-2.55-9.81-2.8-10.62-1.6-5.26-3.06-10.56-1.99-7.21-2.02-14.69-0.02-3.03 1.2-5.65 1.35-2.9 3.69-4.13 2.96-1.55 6.13 0.47 5.98 3.79 12.13 12.62 1.79 2.84 3.69 5.62 1.39 2.01 4.19 5.25 2.63 3.03 4.94 6.33a4.84 4.82-7.5 0 0 2.33 1.78q1.75 0.61 2.93-1.31 0.94-1.53 2.15-2.82 1.16-1.23 2.91-1.87 5.81-2.09 13.67-2.54 36.01-2.08 50.75-2.75 1.97-0.09 3.93 0.69 1.57 0.62 3.15 2.25 3.18 3.26 5.8 7.09a1.21 1.2-43.3 0 0 1.95 0.05q6.92-9.04 14.11-17.64 3.28-3.93 4.15-5.61 1.67-3.22 3.72-6.21 2.63-3.85 7.25-4.87zm-12.37 23.94q-6.82 8.03-12.86 16.66-1.29 1.84-1.78 3.08-0.81 2.04-0.55 3.57 1.08 6.27 3.39 11.4a2.3 2.29 77.8 0 0 2.09 1.35h9.59a1.57 1.56 7.8 0 0 1.51-1.14q1.95-6.92 3.17-13.36 1.77-9.34 7.52-24.7 1.96-5.25 2.73-10.81 0.51-3.69-2.09-1.02-6.73 6.91-12.72 14.97zm-134.94-7q-0.41 5.05 1.19 9.87 1.34 6.25 3.71 12.17 4.54 11.31 7.66 23.1a0.64 0.63 81.7 0 0 0.62 0.47q10.33-0.18 20.59-1.55a1.39 1.38 81.7 0 0 1.18-1.59q-0.9-5.7-3.76-11.1-9.37-10.79-17.82-22.3-0.02-0.02-3.83-5.83-3.15-4.82-7.99-8.91a0.45 0.45-63.8 0 0-0.73 0.25q-0.59 2.71-0.82 5.42zm102.43 15.99q-3.11-1.28-7.17-1.01-13.31 0.85-26.63 2.85a0.78 0.77 79.1 0 0-0.64 0.95l9.45 39.36q0.44 1.84 2.32 1.92 9.44 0.39 18.71-1.21 8-1.38 8.09-1.39 6.68-1.05 13.73-2.48a0.63 0.63 64.5 0 0 0.36-1.02q-2.84-3.46-4.7-7.05-1.19-2.3-2.79-7.91-2.88-10.08-7.23-19.64-1.08-2.38-3.5-3.37zm-12.99 55.99-0.62 32.58a0.99 0.98 2.8 0 0 0.92 1q9.65 0.68 19.29 1.36 2.68 0.19 3.9-0.18 2.12-0.63 3.26-2.49 2.15-3.52 2.55-7.88 0.12-1.35 0.03-8.13-0.14-9.8-2.02-19.45a1.21 1.21 79.6 0 0-1.38-0.96q-5.7 0.93-11.41 2.19-3.81 0.84-7.01 1.08-3.57 0.27-7.09 0.45a0.45 0.44-1.5 0 0-0.42 0.43zm-19.47 0.27-27.69-0.87a0.51 0.51 1.1 0 0-0.53 0.51v33.1a1.13 1.11-0.5 0 0 1.15 1.11l27.28-0.54a0.58 0.56-0.5 0 0 0.57-0.56v-31.95a0.8 0.8 0.7 0 0-0.78-0.8zm55.97 4.5q-0.34 1.98-0.26 12.87 0.07 9.35-0.89 12.79-2.22 8.02-9.44 12.6-2.92 1.86-6.76 2.13-4.53 0.32-9.61-0.18a0.99 0.99 7.5 0 0-1.07 0.82q-0.96 6.09-0.85 11.24a0.58 0.58 1.7 0 0 0.52 0.55q12.03 1.08 24.18 0.54 0.04 0 1.98 0.09 2.35 0.1 2.13-2.36-0.14-1.52-0.14-1.57-0.3-14.51 1.02-28.96 0.05-10.09-0.06-20.18 0-0.27-0.1-0.48-0.46-0.98-0.65 0.1zm42.08 132.09q3.85-5.81 2.47-12.78-4.99-25.12-12.2-49.68-0.6-2.03-1.39-3.51-0.9-1.67-1.96-3.24-1.05-1.56-2.93-1.57-54.65-0.31-109.18 2.94-0.07 0-2.15-0.07-2.92-0.1-2.18 3.38 0.86 13.96 1.88 27.92 0 0.02 1.06 16.69 0.65 10.21 1.85 20.39 0.48 4.1 1.52 6.19 1.44 2.88 5.19 2.56 22.34 3.8 44.65 0.79 9.91-1.34 13.27-1.62 8.53-0.7 13.33-0.92 18.69-0.85 37.31-2.72 3.72-0.38 5.26-1.09 2.55-1.17 4.2-3.66zm289.9-27.52q-3.54-3.68-7.37-6.85a2.68 2.67-36.9 0 0-2.79-0.39q-3.45 1.53-5.95 3.54-3.99 3.21-31.53 22.28-0.36 0.24-6.21 4.74-3.06 2.35-6.6 4.22a0.64 0.64-32.5 0 0-0.21 0.94l21.29 28.65a0.87 0.87 54.5 0 0 1.19 0.2q7.05-4.86 13.7-9.32 2.17-1.46 11.13-8.14 5.62-4.19 11.79-7.58 3.38-1.86 6.11-4.58 2.53-2.52 7.08-4.55a0.89 0.88-21.5 0 0 0.48-1.09q-2.96-8.7-7.47-16.39-1.7-2.91-3.27-4.39-1.37-1.29-1.37-1.29zm-57.22 37.45a0.4 0.39-83.6 0 0-0.37-0.47q-1.75-0.08-3.27 1.07-2.5 1.9-239.88 153.15-0.86 0.55-1.16 1.23-0.74 1.67 1.18 1.75a1.7 1.27-53.3 0 0 0.9-0.27q84.92-54.56 170.07-108.77 36.09-22.98 72-46.24 0.33-0.21 0.53-1.45zm-306.51 20.35q12.01 2.54 21.96 2.19 3.56-0.12 7.46-1.61 9.32-3.56 10.58-4.45 5.72-4.1 10.26-9.52 0.56-0.67-0.31-0.67-17.56-0.02-35.14 1.75-22.56 2.98-45.04-0.51-1.74-0.27-0.4 0.45 2.21 0.6 3.93 2.09 2.13 1.85 4.7 3.02 10.59 4.85 22 7.26zm70.62 144.75q3.17-1.49 241.52-156.04a0.9 0.76-21.8 0 0 0.41-0.77q-0.11-1.09-1.03-1.57a0.93 0.78-46.6 0 0-0.87 0.1q-4.75 3.31-19.03 12.53-110.25 71.25-222.14 143.57a1.96 1.96-16.7 0 0-0.91 1.69q0.01 1.45 2.05 0.49zm247.26-149.1a1.26 1.26 0 0 0-1.7417-0.3766l-241.16 155.42a1.26 1.26 0 0 0-0.3765 1.7417l0.0216 0.0336a1.26 1.26 0 0 0 1.7417 0.3766l241.16-155.42a1.26 1.26 0 0 0 0.3766-1.7417l-0.0216-0.0336zm-228.96 95.177q4.87 4.19 10.06 7.81a1.32 1.32 90 0 0 1.5 0q21.36-14.86 43.39-28.64 1.37-0.85 2.22-1.17 0.51-0.19 0.81-0.51 3.83-4.04 9.07-6.55a1.29 1.28 67.3 0 0 0.65-1.6q-0.76-2.09-2.87-3.92-11.61-15.88-23.68-31.42-4.76-6.13-8.67-11.59-4.21-5.87-8.42-11.75-1.36-1.91-2.14 0.3-4.48 12.68-8.86 25.99-1.6 4.88-4.73 11.9-3.68 8.25-6.29 16.94-3.93 13.09-7.2 26.85-0.41 1.71 0.77 3.01 2.38 2.62 4.39 4.35zm-212.67 16.86q4.31 0.49 7.12 3.69 9.65 8.96 18.66 18.56 2.7 2.87 2.99 3.05 1.8 1.15 4.54 0.7 3.92-0.64 8.45-3.38a1.39 1.39-23 0 0 0.63-1.56q-2.44-9.1-4.41-18.11-0.82-3.75-2.41-9.17-1.34-4.56-2.32-9.22-1.45-4.6-3.13-9.12-0.84-4.68-2.78-8.96-0.16-0.34-3.01-5.14-1.2-2.03-2.83-5.28-6.21-12.38-17.68-22.67-3.52-3.16-6.82-5.98-3.47-2.96-7.22-5.56a0.53 0.53 36.9 0 0-0.72 0.1q-25.63 31.29-31.75 40.3-6.55 9.65-13.44 19.06-3.36 4.6-6.76 7.8-1.23 1.17-0.61 2.74 6.28 15.81 11.6 30.82 0.02 0.03 3.6 10.84 2.56 7.73 5.94 15.37a0.97 0.96-21.1 0 0 1.2 0.52l13.13-4.37a0.61 0.6-28.6 0 0 0.29-0.95q-3.55-4.47-8.25-8.21-1.62-1.28-0.19-2.78 14.26-14.83 29.04-29.98 1.91-1.95 3.06-2.5 1.86-0.87 4.08-0.61zm60.47 57.42q4.01 4.08 8.15 8.02 9.12 10.75 18.6 21.19a0.63 0.62 53.6 0 0 0.77 0.12q20.71-12.31 41.58-25.89a1.11 1.09-24.9 0 0 0.46-1.22q-2.67-9.18 1.34-17.83 2.71-5.83 6.51-10.05 3.26-3.62 9.26-6.87 5.72-3.1 10.67-4.64 7.45-2.32 15.56 0.04 2.37 0.69 4.08 0.24 3.7-0.95 6.67-3.47 7.61-3.68 14.58-8.45 8.39-5.73 17.4-11.83a0.84 0.84 49 0 0 0.09-1.32q-5.2-4.67-10.59-8.69-6.19-4.61-11.69-7.09-10.55-4.75-21.6-5.18-23.47-0.9-39.55 16.69-7.95 8.7-16.98 16.26-4.56 3.82-9.98 6.28-6.99 3.17-14.22 5.71-4.41 1.54-12.73 3.44-4.97 1.13-12.85 3.06-14.2 3.46-29.41 5.4-0.88 0.11-0.31 0.79 7.62 8.91 16.09 17.22 4.56 4.47 8.1 8.07zm70.78 239.64q8.94 7.51 20.07 11.17 4.32 1.42 7.99 1.52 39.61 1.03 83.5 0.21 9.72-0.18 20.01 0.02 17.21 0.33 34.32 0.27a1.19 1.19-85.1 0 0 1.17-0.99q1.68-9.98 4.25-19.76 1.69-14.74 3.62-29.44a0.46 0.46 5.1 0 0-0.44-0.52q-13.33-0.48-26.68-0.31-11.03 0.13-21.99-1.04-11.18-1.19-20.87-6.81-7.07-4.1-13.21-9.39-6.65-5.73-10.27-12.32-4.99-9.08-6.23-19.69-1.17-9.98 3.26-20.54 4.24-10.12 10.61-17.26 1.2-1.34 5.5-4.67 3-2.32 5.39-5.32 19.35-15.03 43.36-20.16 18.93-4.05 37.7-8.78 6.48-2.34 12.97-4.65a0.83 0.83-4.9 0 0 0.55-0.65q4.29-26.92 6.48-51.95 0.62-7.08 0.51-14.68-0.09-6.09-1.42-14.06-2.15-12.94-2.4-13.95-1.08-4.3-2.5-8.5-6.08-21.73-19.39-39.91a0.52 0.51-36.1 0 0-0.71-0.11q-13.58 9.58-14.28 9.77-4 1.1-7 4-7.61 4.22-11.87 8.13-2.13 1.95-3.91 2.86-2.31 1.18-2.34 1.2-10.61 6.51-21 13.86a0.71 0.7-33.3 0 0-0.2 0.93q9.04 15.41 10.11 32.45 0.9 14.27-4.23 27.15-2.58 6.48-7.65 12.82-4.72 5.89-10.23 11.04-6.12 5.72-15.7 11.48-8.36 5.03-17.05 9.5-23.33 12.02-25.68 13.58-7.9 5.26-17.37 15.38-8.88 9.48-12.75 19-3.88 7.48-7.68 15.01-0.02 0.03-5.67 11.84-9.66 20.21-24.19 36.88-1.26 1.45-1.04 3.37 1 8.62 2.82 16.54 2.09 9.11 5.64 15.72 6.07 11.31 16.12 19.76zm-88.13-209.52q2.65-2.02 4.75-3.23 1.28-0.73 1.89-1.69 0.3-0.46 0.68-0.69 5.14-2.99 9.18-7.37 2.13-1.77 4.09-3.71a0.48 0.48 44.2 0 0-0.01-0.69q-20.36-18.9-39.51-39.03-10.91-11.46-20.44-19.57-2.13-1.81-5.38-2.41a1.08 1.05-59.3 0 0-0.88 0.24q-12.96 10.89-23.08 24.37a1.66 1.65-43.6 0 0-0.05 1.91q6.45 9.56 15.02 17.24 3.99 3.57 6.99 8.03 5.8 5.59 11.16 11.59 11.38 12.73 23.71 25.41a1.29 1.28 43 0 0 1.9-0.06q2.94-3.46 5.75-6.48 2.07-2.21 4.23-3.86zm131.15-57.59q-4.53-2.98-9.46-2.95-4.59 0.03-8.66 1.71-3.25 1.35-7.53 4.36-3.55 2.5-6.49 5.69-3.48 3.76-4.39 7.27-1.07 4.14-0.14 9.36a0.35 0.35-21 0 0 0.53 0.23l36.12-22.68q2.33-1.47 0.02-2.99zm9.7 55.65q-6.71 3.64-14.57 4.05-6.83 0.36-12.1-1.11-5.69-1.58-11.03-5.71a1.1 1.09-42.6 0 0-1.26-0.05l-39.23 25.46a0.51 0.51 51.8 0 0-0.09 0.77q6.83 7.28 11.45 16.59a1.71 1.69-43.3 0 1-0.06 1.62q-2.16 3.67-5.08 6.72-11.29 11.85-23.74 22.49-2.43 2.08-4.95 2.07-6-0.03-11.42-3.58-0.77-0.5-1.39-1.56-0.71-1.23-1.44-1.61-7-3.63-12.91-10.1a1.13 1.12 52.5 0 0-1.43-0.2l-41.25 26.02a0.83 0.82 57.4 0 0-0.24 1.14q2.2 3.33 5.14 6.33 2.48 5.02 5.64 9.63 1.31 1.9 1.47 3.86 0.39 4.68-0.42 9.35a1.16 1.13-11.1 0 1-0.53 0.77q-16.6 10.47-33.79 18.87-2.24 1.1-5.93 1.58-7.65 1-12.06-4.69-0.59-0.75-3.73-3.08a1.71 1.65-83.3 0 1-0.58-0.76q-1.1-2.81-2.35-5.56-0.96-2.13-2.96-4.15-1.84-1.85-3.5-3.87a0.93 0.93 34.1 0 1-0.17-0.87l0.38-1.23a0.73 0.7-62.6 0 0-0.23-0.78q-3.89-3.05-4.74-5.57-1.19-3.55-2.97-6.83-0.89-1.65-2.25-1.45a1.22 1.22 0.8 0 1-1.38-1.42q0.65-3.65-1.53-6.16-2.99-3.45-3.49-7.99a2.41 2.38-69 0 0-0.58-1.33q-2.67-3.04-2.58-3.93 0.29-2.88-2.59-2.64l-7.38 0.62q-2.95 0.24-0.77-1.76 7.04-6.47 14.8-11.3 5.12-3.19 5.14-3.21 10.63-6.89 22.42-15.04 0.97-0.67 2.13-0.88 5.37-0.96 9.92 1.26 3.59 1.74 6.94 6.48 3.59 5.1 6.02 11.06a0.81 0.8-26.3 0 0 1.16 0.39q20.18-11.91 40.02-25.04a0.44 0.44 53.2 0 0 0.09-0.65q-19.59-23.47-40.99-45.31-2.21-2.26-3.75-5-8.73-8.77-17.18-17.8a0.58 0.58-32.4 0 0-0.64-0.14q-9.07 3.52-18.12 6.51-15.55 5.15-26.75 16.93-0.9 0.94-1.71 2.14-0.77 1.15-1.54 2.3-11.05 14.52-13.74 32.18-1.22 8-0.98 15.18 0.25 7.35 2.22 15.14 4.22 16.67 10.21 29.98 2.62 5.83 5.1 11.71 1.16 1.52 6.25 9.25 14.47 21.95 34.54 40.59 8.51 7.91 15.48 12.64 32.69 22.18 72.92 14.33 7.63-1.49 15.42-5.15 6.6-3.09 14.16-7.8 7.59-4.71 12.86-9.86 7.55-7.39 14.62-19.63 6.74-11.67 14.93-28.88 0.02-0.06 2.44-5.38 6.56-14.39 17.76-27.61 10.59-12.51 23.65-20.17 0.8-0.48 4.6-2.86 2.31-1.44 4.79-2.55 7.22-3.21 7.26-3.23 17.08-8.74 26.95-14.94 13.13-8.26 21.85-21.78 5.08-7.89 6.83-16.27 3.99-19.15-5.37-37.3-1.42-2.74-2.12-6.04a0.56 0.56 69.3 0 0-0.82-0.37q-6.68 3.79-12 8.38-8.92 5.2-17.48 10.97-2.49 1.69-6.22 3.05a1.3 1.3-10 0 0-0.86 1.22q-0.01 10.56-5 19.19-5.05 8.73-13.59 13.36zm-2.37-50.11a1.85 1.84 44.2 0 0-1.9 0.02l-40.03 25.16a0.97 0.91-15.6 0 0-0.46 0.76q-0.12 2.84 2.13 4.48a0.78 0.71-41.7 0 0 0.84 0.01q36.46-22.67 40.69-25.86 2.87-2.16-1.27-4.57zm-33.48 38.21a1.04 0.88-36.5 0 0 1.24 0.08q20.1-12.96 39.85-26.16 1.91-1.28-0.32-3.91a1.27 1.25 53.5 0 0-1.64-0.26l-41.31 26.35a0.9 0.87-37.5 0 0-0.2 1.34l2.38 2.56zm5.76 4.8q12.73 6.89 25.62 0.69 7.45-3.59 11.06-11.12 1.49-3.11 2.1-7.49 0.52-3.68 0.69-7.82 0.05-1.27-1-0.59l-38.54 24.94a0.82 0.8 42.7 0 0 0.07 1.39zm-58.09 17.35 37.82-24.14a1.32 1.23-33.2 0 0 0.44-1.78l-2.41-3.55a0.58 0.52-32.9 0 0-0.75-0.12l-39.32 24.44a0.5 0.45-36.6 0 0-0.14 0.7l3.8 4.41a0.46 0.39-35.9 0 0 0.56 0.04zm42.799-20.174a1.18 1.18 0 0 0-1.6317-0.3498l-36.926 23.889a1.18 1.18 0 0 0-0.3498 1.6317l1.7708 2.7371a1.18 1.18 0 0 0 1.6317 0.3498l36.926-23.889a1.18 1.18 0 0 0 0.3498-1.6317l-1.7708-2.7371zm-48.219 23.014q-10.14-10.92-13.37-13.63-4.62-3.86-7.82-9.11a0.71 0.71-42 0 0-1.17-0.06q-4.89 6.29-11.01 11.05-9.42 5.3-16.94 13.06-1.09 1.12-1.63 5.69a1.34 1.25 32.1 0 0 0.24 0.91q2.49 3.49 2.83 4.21 2.65 5.75 7.6 9.65 3.99 3.15 8.02 6.23 2.33 2.43 3.55 6.16a0.39 0.39 62.7 0 0 0.59 0.19q8.57-6.18 15.69-13.15 8.74-8.55 12.92-11.08 3.79-2.28 5.22-5.1a0.7 0.68 35.8 0 0-0.14-0.81q-2.23-2.16-4.58-4.21zm-15.9 46.9q3.07 2.97 6.05 5.13 1.62 1.17 3.22-0.02 14.34-10.68 27.25-24.84a0.94 0.93 46.3 0 0 0.02-1.23q-4.27-5.07-7.97-10.16-1.12-1.55-2.06-2.36-1.45-1.24-2.68-1.65-2.08-0.7-3.66 0.84-10.56 10.34-24.3 20.48-1.03 0.76-1.66 1.87-1.57 2.75 0.69 5.54 2.14 3.53 5.1 6.4zm-73.39 4.3q2.03 0.48 2.76 2.7a1.12 1.11-24.9 0 0 1.65 0.6q19.92-12.27 39.27-25.73a1.48 1.48 52.9 0 0 0.3-2.17q-1.37-1.65-3.53-1.27-1.07 0.19-3.15 1.44-18.88 11.34-37.52 23.11-1.46 0.92 0.22 1.32zm9.23 13.36 40.43-25.68a1.35 1.22-37.5 0 0 0.36-1.95l-2.78-2.95a1.56 1.35-37.8 0 0-1.87-0.1l-38.65 25.47a0.86 0.78-21 0 0-0.39 0.78q0.26 2.14 2.04 4.29a0.67 0.65 53.4 0 0 0.86 0.14zm-40.25-18.86q1.53-2.04 3.94-2.45 2.12-0.37 9.37-5.45 0.15-0.1 0.54-0.27 0.45-0.18 0.38-0.53a0.54 0.42-18.3 0 0-0.7-0.25q-9.36 3.89-17.72 9.62-9.77 4.87-18.27 11.71-0.43 0.34-0.02 0.48 0.19 0.06 0.46-0.05 7.7-3.27 14.28-8.45 2.81-2.2 6.1-3.21a3.25 3.22 9.7 0 0 1.64-1.15zm0.33 9.06q-8.89 4.35-16.8 10.34-0.42 0.31-0.05 0.47 0.18 0.07 0.45-0.08 8-4.54 15.72-9.53 0.77-0.5 3.48-1.91 1.79-0.94 3.33-2.24 2.38-2.03 4.04-2.85 3.79-1.87 7.52-3.87 0.74-0.39 1.06-1.06 0.25-0.5-0.29-0.28-6.68 2.81-12.6 7-1.67 0.78-3.01 1.96-1.63 1.46-2.85 2.05zm23.794-1.9919a2.81 0.79-30.4 0 0-2.8235 0.7405 2.81 0.79-30.4 0 0-2.0239 2.1033 2.81 0.79-30.4 0 0 2.8235-0.7405 2.81 0.79-30.4 0 0 2.0239-2.1033zm-8.9937 5.8819q1.24-0.67 2.49-1.31a1.57 1.32-3.8 0 0 0.68-0.65q0.71-1.44-0.99-0.57-1.06 0.96-2.25 1.75-7.05 3.35-13.5 7.75-4.07 2.78-13.62 7.88-1.61 0.86-0.36 1.79a0.81 0.74-40.4 0 0 0.85 0.03q9.74-5.51 19.81-13.08 0.69-0.52 1.54-0.65 1.73-0.26 2.95-1.17 2.35-1.75 2.4-1.77zm9.4 2.46-0.29-0.08a0.79 0.51-68 0 0-0.69 0.49q-1.15 2.38-3.48 3.71-0.28 0.16-0.45 0.36-1 1.13 0.32 0.65 4.55-1.66 7.96-5.08a1.25 0.86-30.8 0 0 0.39-0.85q-0.04-0.57-0.5-0.8a0.97 0.64-45.3 0 0-0.87 0.18l-1.86 1.38a0.68 0.32 21 0 1-0.53 0.04zm2.16 10.61q3.38-0.02 6.11-2.57a0.94 0.93-35 0 0 0.2-1.1q-1.09-2.16-1.66-0.77-0.22 0.55-0.52 0.8-0.56 0.48-1.19 0.88-0.08 0.04-1.13 0.86-1 0.79-2.49 0.24a0.55 0.55-84.5 0 0-0.74 0.61q0.18 1.05 1.42 1.05zm-18.18 0.9q1.78 0.13 2.52-1.12a0.37 0.37 19.8 0 0-0.27-0.56q-1.32-0.16-2.44 1.24-0.33 0.4 0.19 0.44zm7.49 3.9q-1.74 0.14-2.48 1.53-0.27 0.49 0.29 0.44 1.63-0.14 2.48-1.68 3.67-2.66 4.71-2.75 1.86-0.16 2.35-1.69 0.25-0.75-0.49-0.46-4.25 1.66-6.86 4.61zm-11.54-2.21q-3.93 2.59-5.21 3-4.23 1.36-6.9 4.77-0.66 0.84 0.32 0.42 4.08-1.7 7.27-4.75 2.61-1.26 4.81-3.15 3.04-1.87-0.29-0.29zm24.19 6.15q-0.89 0.95-0.07 1.03 0.31 0.04 0.66-0.18 3.04-1.88 6.13-3.68a1.78 1.51-6.2 0 0 0.67-0.71q0.95-2.04-1.06-1.08-3.62 1.73-6.33 4.62zm-17.17-1.5q-1.91 1.26-3.69 2.69-1.61 1.31-3.88 2.25-3.08 1.28-5.7 3.4-0.43 0.34-0.71 0.73-1.3 1.82 0.94 0.97 2.72-1.05 6.41-4.11 1.07-0.89 3.32-1.84 2.61-1.09 4.15-3.61a0.39 0.26-52.4 0 0 0.03-0.4l-0.16-0.16a0.67 0.37-35.3 0 0-0.71 0.08zm3.36 9.81q-1.75 1.36 0.31 0.55 5.42-2.15 11-6.37 0.67-0.5 0.1-0.57-0.17-0.02-0.37 0.06-5.79 2.23-11.04 6.33zm19.494-2.7414a3.51 0.52-30.5 0 0-3.2882 1.3333 3.51 0.52-30.5 0 0-2.7604 2.2295 3.51 0.52-30.5 0 0 3.2882-1.3333 3.51 0.52-30.5 0 0 2.7604-2.2295zm8.922 3.4447a1.53 1.02-4 0 0-1.5975-0.9108 1.53 1.02-4 0 0-1.4551 1.1242 1.53 1.02-4 0 0 1.5974 0.9108 1.53 1.02-4 0 0 1.4552-1.1242zm-30.356 1.0307a0.62 0.62 0 0 0-0.8519-0.2077l-9.5528 5.8083a0.62 0.62 0 0 0-0.2077 0.8518l0.0728 0.1197a0.62 0.62 0 0 0 0.8518 0.2076l9.5529-5.8082a0.62 0.62 0 0 0 0.2077-0.8519l-0.0728-0.1196zm25.7 1.786q1.13-0.89-0.12-1.31-1.67-0.55-1.11 0.97a0.79 0.79-29.5 0 0 1.23 0.34zm-12.87-0.24q0.33-0.8-0.75-0.37a0.55 0.46-23.5 0 0-0.33 0.65q0.15 0.34 0.58 0.2 0.34-0.11 0.5-0.48zm8.05 2q-1.41 2.21 0.81 0.49 0.26-0.19 0.31-0.43 0.09-0.47-0.34-0.52a0.95 0.68-66.1 0 0-0.78 0.46zm14.78 1.06q-1.51 0.02-2.64 1.03-0.43 0.39 0.14 0.29 1.4-0.25 2.59-1.02 0.48-0.31-0.09-0.3zm-17.689 0.7356a1.47 0.89-26 0 0-1.7113-0.1555 1.47 0.89-26 0 0-0.9311 1.4443 1.47 0.89-26 0 0 1.7114 0.1555 1.47 0.89-26 0 0 0.931-1.4443zm-5.2512 3.2344q-0.38 1.13 1.1 0.05a0.37 0.3-46 0 0 0.05-0.57q-0.2-0.11-0.48-0.07a0.88 0.75-81.8 0 0-0.67 0.59zm14.65 0.2q-0.12 0.28 0 0.56a0.47 0.43-31.2 0 0 0.71 0.14q0.62-0.49 0.03-0.89a0.52 0.48 28.3 0 0-0.74 0.19zm-34.28 0.78a0.74 0.52 0 0 0-0.74-0.52 0.74 0.52 0 0 0-0.74 0.52 0.74 0.52 0 0 0 0.74 0.52 0.74 0.52 0 0 0 0.74-0.52zm14.61 0.06q1.43 1.05 2.85 1.13a0.83 0.68 11.1 0 0 0.77-0.41q0.13-0.31 0.04-0.64a0.94 0.73 2.8 0 0-0.68-0.58q-1.52-0.32-2.94 0.23-0.28 0.1-0.04 0.27zm-3.29 1.13q-0.93-0.73-1.6-0.42a0.74 0.5 73.4 0 0-0.24 0.77l0.53 2.39a0.58 0.5 80.3 0 0 0.56 0.46q4.21-0.53 0.75-3.2zm-4.39 4.62q4.36 1.26 2.21-0.73a1.6 1.54-19.5 0 0-0.88-0.4l-3.5-0.43a1.36 0.84 5.2 0 0-1.5 0.75q-0.04 2.45 1.83 1.12a2.16 2.13-54.3 0 1 1.84-0.31zm-162.48 95.13q-0.94 1.62 0.36 2.35a1.27 0.94-32.9 0 0 0.93 0.06q4.71-1.45 10.83-4.04 7.23-3.06 16.19-4.56 17.83-4.43 35.75-8.5 26.64-6.62 53.5-12.25 8.3-2.67 16.72-4.94a0.72 0.7-5.4 0 0 0.53-0.62q0.28-3.37-3.69-2.63-9.95 1.88-17.81 4.69-7.69 2.75-20.63 5.42-9.98 2.07-16.16 3.56-11.38 2.76-16.15 3.58-9.71 1.67-19.14 4.56-5.56 1.7-16.67 4.13-7.12 1.56-18.63 4.95-4.19 1.23-5.93 4.24z"/>
<path d="m482 9.99q-0.77 5.56-2.73 10.81-5.75 15.36-7.52 24.7-1.22 6.44-3.17 13.36a1.57 1.56 7.8 0 1-1.51 1.14h-9.59a2.3 2.29 77.8 0 1-2.09-1.35q-2.31-5.13-3.39-11.4-0.26-1.53 0.55-3.57 0.49-1.24 1.78-3.08 6.04-8.63 12.86-16.66 5.99-8.06 12.72-14.97 2.6-2.67 2.09 1.02z" fill="#fff"/>
<path d="m333.8 11.27q4.84 4.09 7.99 8.91 3.81 5.81 3.83 5.83 8.45 11.51 17.82 22.3 2.86 5.4 3.76 11.1a1.39 1.38 81.7 0 1-1.18 1.59q-10.26 1.37-20.59 1.55a0.64 0.63 81.7 0 1-0.62-0.47q-3.12-11.79-7.66-23.1-2.37-5.92-3.71-12.17-1.6-4.82-1.19-9.87 0.23-2.71 0.82-5.42a0.45 0.45-63.8 0 1 0.73-0.25z" fill="#fff"/>
<path d="m427.51 31.92q4.06-0.27 7.17 1.01 2.42 0.99 3.5 3.37 4.35 9.56 7.23 19.64 1.6 5.61 2.79 7.91 1.86 3.59 4.7 7.05a0.63 0.63 64.5 0 1-0.36 1.02q-7.05 1.43-13.73 2.48-0.09 0.01-8.09 1.39-9.27 1.6-18.71 1.21-1.88-0.08-2.32-1.92l-9.45-39.36a0.78 0.77 79.1 0 1 0.64-0.95q13.32-2 26.63-2.85z" fill="#fff"/>
<path d="m447.62 84.77a1.21 1.21 79.6 0 1 1.38 0.96q1.88 9.65 2.02 19.45 0.09 6.78-0.03 8.13-0.4 4.36-2.55 7.88-1.14 1.86-3.26 2.49-1.22 0.37-3.9 0.18-9.64-0.68-19.29-1.36a0.99 0.98 2.8 0 1-0.92-1l0.62-32.58a0.45 0.44-1.5 0 1 0.42-0.43q3.52-0.18 7.09-0.45 3.2-0.24 7.01-1.08 5.71-1.26 11.41-2.19z" fill="#fff"/>
<path d="m374.53 88.32 27.69 0.87a0.8 0.8 0.7 0 1 0.78 0.8v31.95a0.58 0.56-0.5 0 1-0.57 0.56l-27.28 0.54a1.13 1.11-0.5 0 1-1.15-1.11v-33.1a0.51 0.51 1.1 0 1 0.53-0.51z" fill="#fff"/>
<path d="m458.94 94.07q0.11 10.09 0.06 20.18-1.32 14.45-1.02 28.96 0 0.05 0.14 1.57 0.22 2.46-2.13 2.36-1.94-0.09-1.98-0.09-12.15 0.54-24.18-0.54a0.58 0.58 1.7 0 1-0.52-0.55q-0.11-5.15 0.85-11.24a0.99 0.99 7.5 0 1 1.07-0.82q5.08 0.5 9.61 0.18 3.84-0.27 6.76-2.13 7.22-4.58 9.44-12.6 0.96-3.44 0.89-12.79-0.08-10.89 0.26-12.87 0.19-1.08 0.65-0.1 0.1 0.21 0.1 0.48z" fill="#fff"/>
<path d="m484.26 155q1.88 0.01 2.93 1.57 1.06 1.57 1.96 3.24 0.79 1.48 1.39 3.51 7.21 24.56 12.2 49.68 1.38 6.97-2.47 12.78-1.65 2.49-4.2 3.66-1.54 0.71-5.26 1.09-18.62 1.87-37.31 2.72-4.8 0.22-13.33 0.92-3.36 0.28-13.27 1.62-22.31 3.01-44.65-0.79-3.75 0.32-5.19-2.56-1.04-2.09-1.52-6.19-1.2-10.18-1.85-20.39-1.06-16.67-1.06-16.69-1.02-13.96-1.88-27.92-0.74-3.48 2.18-3.38 2.08 0.07 2.15 0.07 54.53-3.25 109.18-2.94zm-33.07 30.69q-4.31 6.22-0.69 10.84 2.86 3.65 7.24 4.95 4.81 1.43 9.37-2.61 3.38-2.98 3.79-7.03 0.39-3.84-1.96-7.14-2.78-3.87-7.77-4.25-3.05-0.24-5.6 1.2-2.6 1.47-4.38 4.04zm-57.42 4.59q-2.46 2.6-1.16 6.14 1.58 4.26 5.58 6.39 3.51 1.87 6.56 0.44 4.57-2.15 6.32-7.68 1.38-4.38-2.51-6.88-8.26-5.33-14.79 1.59z" fill="#fff"/>
<path d="m470.9 191.84q-0.41 4.05-3.79 7.03-4.56 4.04-9.37 2.61-4.38-1.3-7.24-4.95-3.62-4.62 0.69-10.84 1.78-2.57 4.38-4.04 2.55-1.44 5.6-1.2 4.99 0.38 7.77 4.25 2.35 3.3 1.96 7.14zm-4.7082-1.822a4.41 3.35 42.3 0 0-1.0072-5.4458 4.41 3.35 42.3 0 0-5.5164-0.4902 4.41 3.35 42.3 0 0 1.0072 5.4458 4.41 3.35 42.3 0 0 5.5164 0.4902zm-3.1118 7.172q-3.17-0.64-6.33-1.21-0.5-0.1-0.65 0.06a0.51 0.3 30.2 0 0 0.33 0.58q3.44 1.64 6.63 1.22 1.96-0.26 0.02-0.65z"/>
<ellipse transform="translate(462.93,187.05) rotate(42.3)" rx="4.41" ry="3.35" fill="#fff"/>
<path d="m408.56 188.69q3.89 2.5 2.51 6.88-1.75 5.53-6.32 7.68-3.05 1.43-6.56-0.44-4-2.13-5.58-6.39-1.3-3.54 1.16-6.14 6.53-6.92 14.79-1.59z"/>
<path d="m782.8 191.41q3.83 3.17 7.37 6.85 0 0 1.37 1.29 1.57 1.48 3.27 4.39 4.51 7.69 7.47 16.39a0.89 0.88-21.5 0 1-0.48 1.09q-4.55 2.03-7.08 4.55-2.73 2.72-6.11 4.58-6.17 3.39-11.79 7.58-8.96 6.68-11.13 8.14-6.65 4.46-13.7 9.32a0.87 0.87 54.5 0 1-1.19-0.2l-21.29-28.65a0.64 0.64-32.5 0 1 0.21-0.94q3.54-1.87 6.6-4.22 5.85-4.5 6.21-4.74 27.54-19.07 31.53-22.28 2.5-2.01 5.95-3.54a2.68 2.67-36.9 0 1 2.79 0.39z" fill="#fff"/>
<path d="m456.75 195.98q3.16 0.57 6.33 1.21 1.94 0.39-0.02 0.65-3.19 0.42-6.63-1.22a0.51 0.3 30.2 0 1-0.33-0.58q0.15-0.16 0.65-0.06z" fill="#fff"/>
<path d="m732.58 235.24a0.4 0.39-83.6 0 1 0.37 0.47q-0.2 1.24-0.53 1.45-35.91 23.26-72 46.24-85.15 54.21-170.07 108.77a1.7 1.27-53.3 0 1-0.9 0.27q-1.92-0.08-1.18-1.75 0.3-0.68 1.16-1.23 237.38-151.25 239.88-153.15 1.52-1.15 3.27-1.07z" fill="#fff"/>
<path d="m476.39 242q0.87 0 0.31 0.67-4.54 5.42-10.26 9.52-1.26 0.89-10.58 4.45-3.9 1.49-7.46 1.61-9.95 0.35-21.96-2.19-11.41-2.41-22-7.26-2.57-1.17-4.7-3.02-1.72-1.49-3.93-2.09-1.34-0.72 0.4-0.45 22.48 3.49 45.04 0.51 17.58-1.77 35.14-1.75z" fill="#fff"/>
<path d="m737.96 242.43q0.92 0.48 1.03 1.57a0.9 0.76-21.8 0 1-0.41 0.77q-238.35 154.55-241.52 156.04-2.04 0.96-2.05-0.49a1.96 1.96-16.7 0 1 0.91-1.69q111.89-72.32 222.14-143.57 14.28-9.22 19.03-12.53a0.93 0.78-46.6 0 1 0.87-0.1z" fill="#fff"/>
<rect transform="translate(622.69,330.12) rotate(-32.8)" x="-144.71" y="-1.28" width="289.42" height="2.56" rx="1.26" fill="#fff"/>
<path d="m539.42 257.55q4.21 5.88 8.42 11.75 3.91 5.46 8.67 11.59 12.07 15.54 23.68 31.42 2.11 1.83 2.87 3.92a1.29 1.28 67.3 0 1-0.65 1.6q-5.24 2.51-9.07 6.55-0.3 0.32-0.81 0.51-0.85 0.32-2.22 1.17-22.03 13.78-43.39 28.64a1.32 1.32-90 0 1-1.5 0q-5.19-3.62-10.06-7.81-2.01-1.73-4.39-4.35-1.18-1.3-0.77-3.01 3.27-13.76 7.2-26.85 2.61-8.69 6.29-16.94 3.13-7.02 4.73-11.9 4.38-13.31 8.86-25.99 0.78-2.21 2.14-0.3z" fill="#fff"/>
<path d="m292.47 285.6q3.75 2.6 7.22 5.56 3.3 2.82 6.82 5.98 11.47 10.29 17.68 22.67 1.63 3.25 2.83 5.28 2.85 4.8 3.01 5.14 1.94 4.28 2.78 8.96 1.68 4.52 3.13 9.12 0.98 4.66 2.32 9.22 1.59 5.42 2.41 9.17 1.97 9.01 4.41 18.11a1.39 1.39-23 0 1-0.63 1.56q-4.53 2.74-8.45 3.38-2.74 0.45-4.54-0.7-0.29-0.18-2.99-3.05-9.01-9.6-18.66-18.56-2.81-3.2-7.12-3.69-2.22-0.26-4.08 0.61-1.15 0.55-3.06 2.5-14.78 15.15-29.04 29.98-1.43 1.5 0.19 2.78 4.7 3.74 8.25 8.21a0.61 0.6-28.6 0 1-0.29 0.95l-13.13 4.37a0.97 0.96-21.1 0 1-1.2-0.52q-3.38-7.64-5.94-15.37-3.58-10.81-3.6-10.84-5.32-15.01-11.6-30.82-0.62-1.57 0.61-2.74 3.4-3.2 6.76-7.8 6.89-9.41 13.44-19.06 6.12-9.01 31.75-40.3a0.53 0.53 36.9 0 1 0.72-0.1z" fill="#fff"/>
<path d="m475 338.25q11.05 0.43 21.6 5.18 5.5 2.48 11.69 7.09 5.39 4.02 10.59 8.69a0.84 0.84 49 0 1-0.09 1.32q-9.01 6.1-17.4 11.83-6.97 4.77-14.58 8.45-2.97 2.52-6.67 3.47-1.71 0.45-4.08-0.24-8.11-2.36-15.56-0.04-4.95 1.54-10.67 4.64-6 3.25-9.26 6.87-3.8 4.22-6.51 10.05-4.01 8.65-1.34 17.83a1.11 1.09-24.9 0 1-0.46 1.22q-20.87 13.58-41.58 25.89a0.63 0.62 53.6 0 1-0.77-0.12q-9.48-10.44-18.6-21.19-4.14-3.94-8.15-8.02-3.54-3.6-8.1-8.07-8.47-8.31-16.09-17.22-0.57-0.68 0.31-0.79 15.21-1.94 29.41-5.4 7.88-1.93 12.85-3.06 8.32-1.9 12.73-3.44 7.23-2.54 14.22-5.71 5.42-2.46 9.98-6.28 9.03-7.56 16.98-16.26 16.08-17.59 39.55-16.69z" fill="#fff"/>
<path d="m609.8 348.65q13.31 18.18 19.39 39.91 1.42 4.2 2.5 8.5 0.25 1.01 2.4 13.95 1.33 7.97 1.42 14.06 0.11 7.6-0.51 14.68-2.19 25.03-6.48 51.95a0.83 0.83-5 0 1-0.55 0.65q-6.49 2.31-12.97 4.65-18.77 4.73-37.7 8.78-24.01 5.13-43.36 20.16-2.39 3-5.39 5.32-4.3 3.33-5.5 4.67-6.37 7.14-10.61 17.26-4.43 10.56-3.26 20.54 1.24 10.61 6.23 19.69 3.62 6.59 10.27 12.32 6.14 5.29 13.21 9.39 9.69 5.62 20.87 6.81 10.96 1.17 21.99 1.04 13.35-0.17 26.68 0.31a0.46 0.46 5.1 0 1 0.44 0.52q-1.93 14.7-3.62 29.44-2.57 9.78-4.25 19.76a1.19 1.19-85.1 0 1-1.17 0.99q-17.11 0.06-34.32-0.27-10.29-0.2-20.01-0.02-43.89 0.82-83.5-0.21-3.67-0.1-7.99-1.52-11.13-3.66-20.07-11.17-10.05-8.45-16.12-19.76-3.55-6.61-5.64-15.72-1.82-7.92-2.82-16.54-0.22-1.92 1.04-3.37 14.53-16.67 24.19-36.88 5.65-11.81 5.67-11.84 3.8-7.53 7.68-15.01 3.87-9.52 12.75-19 9.47-10.12 17.37-15.38 2.35-1.56 25.68-13.58 8.69-4.47 17.05-9.5 9.58-5.76 15.7-11.48 5.51-5.15 10.23-11.04 5.07-6.34 7.65-12.82 5.13-12.88 4.23-27.15-1.07-17.04-10.11-32.45a0.71 0.7-33.3 0 1 0.2-0.93q10.39-7.35 21-13.86 0.03-0.02 2.34-1.2 1.78-0.91 3.91-2.86 4.26-3.91 11.87-8.13 3-2.9 7-4 0.7-0.19 14.28-9.77a0.52 0.51-36.1 0 1 0.71 0.11z" fill="#fff"/>
<path d="m301.06 372.9q3.25 0.6 5.38 2.41 9.53 8.11 20.44 19.57 19.15 20.13 39.51 39.03a0.48 0.48 44.2 0 1 0.01 0.69q-1.96 1.94-4.09 3.71-4.04 4.38-9.18 7.37-0.38 0.23-0.68 0.69-0.61 0.96-1.89 1.69-2.1 1.21-4.75 3.23-2.16 1.65-4.23 3.86-2.81 3.02-5.75 6.48a1.29 1.28 43 0 1-1.9 0.06q-12.33-12.68-23.71-25.41-5.36-6-11.16-11.59-3-4.46-6.99-8.03-8.57-7.68-15.02-17.24a1.66 1.65-43.6 0 1 0.05-1.91q10.12-13.48 23.08-24.37a1.08 1.05-59.3 0 1 0.88-0.24z" fill="#fff"/>
<path d="m467.5 390.75q4.93-0.03 9.46 2.95 2.31 1.52-0.02 2.99l-36.12 22.68a0.35 0.35-21 0 1-0.53-0.23q-0.93-5.22 0.14-9.36 0.91-3.51 4.39-7.27 2.94-3.19 6.49-5.69 4.28-3.01 7.53-4.36 4.07-1.68 8.66-1.71z" fill="#fff"/>
<path d="m542.63 393.55q0.7 3.3 2.12 6.04 9.36 18.15 5.37 37.3-1.75 8.38-6.83 16.27-8.72 13.52-21.85 21.78-9.87 6.2-26.95 14.94-0.04 0.02-7.26 3.23-2.48 1.11-4.79 2.55-3.8 2.38-4.6 2.86-13.06 7.66-23.65 20.17-11.2 13.22-17.76 27.61-2.42 5.32-2.44 5.38-8.19 17.21-14.93 28.88-7.07 12.24-14.62 19.63-5.27 5.15-12.86 9.86-7.56 4.71-14.16 7.8-7.79 3.66-15.42 5.15-40.23 7.85-72.92-14.33-6.97-4.73-15.48-12.64-20.07-18.64-34.54-40.59-5.09-7.73-6.25-9.25-2.48-5.88-5.1-11.71-5.99-13.31-10.21-29.98-1.97-7.79-2.22-15.14-0.24-7.18 0.98-15.18 2.69-17.66 13.74-32.18 0.77-1.15 1.54-2.3 0.81-1.2 1.71-2.14 11.2-11.78 26.75-16.93 9.05-2.99 18.12-6.51a0.58 0.58-32.4 0 1 0.64 0.14q8.45 9.03 17.18 17.8 1.54 2.74 3.75 5 21.4 21.84 40.99 45.31a0.44 0.44 53.2 0 1-0.09 0.65q-19.84 13.13-40.02 25.04a0.81 0.8-26.3 0 1-1.16-0.39q-2.43-5.96-6.02-11.06-3.35-4.74-6.94-6.48-4.55-2.22-9.92-1.26-1.16 0.21-2.13 0.88-11.79 8.15-22.42 15.04-0.02 0.02-5.14 3.21-7.76 4.83-14.8 11.3-2.18 2 0.77 1.76l7.38-0.62q2.88-0.24 2.59 2.64-0.09 0.89 2.58 3.93a2.41 2.38-69 0 1 0.58 1.33q0.5 4.54 3.49 7.99 2.18 2.51 1.53 6.16a1.22 1.22 0.8 0 0 1.38 1.42q1.36-0.2 2.25 1.45 1.78 3.28 2.97 6.83 0.85 2.52 4.74 5.57a0.73 0.7-62.6 0 1 0.23 0.78l-0.38 1.23a0.93 0.93 34.1 0 0 0.17 0.87q1.66 2.02 3.5 3.87 2 2.02 2.96 4.15 1.25 2.75 2.35 5.56a1.71 1.65-83.3 0 0 0.58 0.76q3.14 2.33 3.73 3.08 4.41 5.69 12.06 4.69 3.69-0.48 5.93-1.58 17.19-8.4 33.79-18.87a1.16 1.13-11.1 0 0 0.53-0.77q0.81-4.67 0.42-9.35-0.16-1.96-1.47-3.86-3.16-4.61-5.64-9.63-2.94-3-5.14-6.33a0.83 0.82 57.4 0 1 0.24-1.14l41.25-26.02a1.13 1.12 52.5 0 1 1.43 0.2q5.91 6.47 12.91 10.1 0.73 0.38 1.44 1.61 0.62 1.06 1.39 1.56 5.42 3.55 11.42 3.58 2.52 0.01 4.95-2.07 12.45-10.64 23.74-22.49 2.92-3.05 5.08-6.72a1.71 1.69-43.3 0 0 0.06-1.62q-4.62-9.31-11.45-16.59a0.51 0.51 51.8 0 1 0.09-0.77l39.23-25.46a1.1 1.09-42.6 0 1 1.26 0.05q5.34 4.13 11.03 5.71 5.27 1.47 12.1 1.11 7.86-0.41 14.57-4.05 8.54-4.63 13.59-13.36 4.99-8.63 5-19.19a1.3 1.3-10 0 1 0.86-1.22q3.73-1.36 6.22-3.05 8.56-5.77 17.48-10.97 5.32-4.59 12-8.38a0.56 0.56 69.3 0 1 0.82 0.37z" fill="#fff"/>
<path d="m484.29 399.24q4.14 2.41 1.27 4.57-4.23 3.19-40.69 25.86a0.78 0.71-41.7 0 1-0.84-0.01q-2.25-1.64-2.13-4.48a0.97 0.91-15.6 0 1 0.46-0.76l40.03-25.16a1.85 1.84 44.2 0 1 1.9-0.02z" fill="#fff"/>
<path d="m489.94 407.2a1.27 1.25 53.5 0 1 1.64 0.26q2.23 2.63 0.32 3.91-19.75 13.2-39.85 26.16a1.04 0.88-36.5 0 1-1.24-0.08l-2.38-2.56a0.9 0.87-37.5 0 1 0.2-1.34l41.31-26.35z" fill="#fff"/>
<path d="m496.04 416.51q-0.17 4.14-0.69 7.82-0.61 4.38-2.1 7.49-3.61 7.53-11.06 11.12-12.89 6.2-25.62-0.69a0.82 0.8 42.7 0 1-0.07-1.39l38.54-24.94q1.05-0.68 1 0.59z" fill="#fff"/>
<path d="m434.33 430.13 2.41 3.55a1.32 1.23-33.2 0 1-0.44 1.78l-37.82 24.14a0.46 0.39-35.9 0 1-0.56-0.04l-3.8-4.41a0.5 0.45-36.6 0 1 0.14-0.7l39.32-24.44a0.58 0.52-32.9 0 1 0.75 0.12z" fill="#fff"/>
<rect transform="translate(422.71,453.38) rotate(-32.9)" x="-23.17" y="-2.81" width="46.34" height="5.62" rx="1.18" fill="#fff"/>
<path d="m371.87 439.7q3.2 5.25 7.82 9.11 3.23 2.71 13.37 13.63 2.35 2.05 4.58 4.21a0.7 0.68 35.8 0 1 0.14 0.81q-1.43 2.82-5.22 5.1-4.18 2.53-12.92 11.08-7.12 6.97-15.69 13.15a0.39 0.39 62.7 0 1-0.59-0.19q-1.22-3.73-3.55-6.16-4.03-3.08-8.02-6.23-4.95-3.9-7.6-9.65-0.34-0.72-2.83-4.21a1.34 1.25 32.1 0 1-0.24-0.91q0.54-4.57 1.63-5.69 7.52-7.76 16.94-13.06 6.12-4.76 11.01-11.05a0.71 0.71-42 0 1 1.17 0.06z" fill="#fff"/>
<path d="m400.99 474.21q1.23 0.41 2.68 1.65 0.94 0.81 2.06 2.36 3.7 5.09 7.97 10.16a0.94 0.93 46.3 0 1-0.02 1.23q-12.91 14.16-27.25 24.84-1.6 1.19-3.22 0.02-2.98-2.16-6.05-5.13-2.96-2.87-5.1-6.4-2.26-2.79-0.69-5.54 0.63-1.11 1.66-1.87 13.74-10.14 24.3-20.48 1.58-1.54 3.66-0.84z" fill="#fff"/>
<path d="m347.75 489.04a1.48 1.48 52.9 0 1-0.3 2.17q-19.35 13.46-39.27 25.73a1.12 1.11-24.9 0 1-1.65-0.6q-0.73-2.22-2.76-2.7-1.68-0.4-0.22-1.32 18.64-11.77 37.52-23.11 2.08-1.25 3.15-1.44 2.16-0.38 3.53 1.27z" fill="#fff"/>
<path d="m351.01 496.42 2.78 2.95a1.35 1.22-37.5 0 1-0.36 1.95l-40.43 25.68a0.67 0.65 53.4 0 1-0.86-0.14q-1.78-2.15-2.04-4.29a0.86 0.78-21 0 1 0.39-0.78l38.65-25.47a1.56 1.35-37.8 0 1 1.87 0.1z" fill="#fff"/>
<path d="m286.98 499.44q0.07 0.35-0.38 0.53-0.39 0.17-0.54 0.27-7.25 5.08-9.37 5.45-2.41 0.41-3.94 2.45a3.25 3.22 9.7 0 1-1.64 1.15q-3.29 1.01-6.1 3.21-6.58 5.18-14.28 8.45-0.27 0.11-0.46 0.05-0.41-0.14 0.02-0.48 8.5-6.84 18.27-11.71 8.36-5.73 17.72-9.62a0.54 0.42-18.3 0 1 0.7 0.25z" fill="#fff"/>
<path d="m291.83 506.47q-0.32 0.67-1.06 1.06-3.73 2-7.52 3.87-1.66 0.82-4.04 2.85-1.54 1.3-3.33 2.24-2.71 1.41-3.48 1.91-7.72 4.99-15.72 9.53-0.27 0.15-0.45 0.08-0.37-0.16 0.05-0.47 7.91-5.99 16.8-10.34 1.22-0.59 2.85-2.05 1.34-1.18 3.01-1.96 5.92-4.19 12.6-7 0.54-0.22 0.29 0.28z" fill="#fff"/>
<ellipse transform="translate(294.45,516.63) rotate(-30.4)" rx="2.81" ry=".79" fill="#fff"/>
<path d="m290.37 519.78q-1.25 0.64-2.49 1.31-0.05 0.02-2.4 1.77-1.22 0.91-2.95 1.17-0.85 0.13-1.54 0.65-10.07 7.57-19.81 13.08a0.81 0.74-40.4 0 1-0.85-0.03q-1.25-0.93 0.36-1.79 9.55-5.1 13.62-7.88 6.45-4.4 13.5-7.75 1.19-0.79 2.25-1.75 1.7-0.87 0.99 0.57a1.57 1.32-3.8 0 1-0.68 0.65z" fill="#fff"/>
<path d="m300.54 521.95q0.46 0.23 0.5 0.8a1.25 0.86-30.8 0 1-0.39 0.85q-3.41 3.42-7.96 5.08-1.32 0.48-0.32-0.65 0.17-0.2 0.45-0.36 2.33-1.33 3.48-3.71a0.79 0.51-68 0 1 0.69-0.49l0.29 0.08a0.68 0.32 21 0 0 0.53-0.04l1.86-1.38a0.97 0.64-45.3 0 1 0.87-0.18z" fill="#fff"/>
<path d="m305.75 530.49a0.94 0.93-35 0 1-0.2 1.1q-2.73 2.55-6.11 2.57-1.24 0-1.42-1.05a0.55 0.55-84.5 0 1 0.74-0.61q1.49 0.55 2.49-0.24 1.05-0.82 1.13-0.86 0.63-0.4 1.19-0.88 0.3-0.25 0.52-0.8 0.57-1.39 1.66 0.77z" fill="#fff"/>
<path d="m283.78 533.94q-0.74 1.25-2.52 1.12-0.52-0.04-0.19-0.44 1.12-1.4 2.44-1.24a0.37 0.37 19.8 0 1 0.27 0.56z" fill="#fff"/>
<path d="m296.1 534.81q-0.49 1.53-2.35 1.69-1.04 0.09-4.71 2.75-0.06-0.23-0.29-0.29 2.61-2.95 6.86-4.61 0.74-0.29 0.49 0.46z" fill="#fff"/>
<path d="m277.5 537.04q-0.23-0.06-0.29-0.29 3.33-1.58 0.29 0.29z" fill="#fff"/>
<path d="m277.21 536.75q0.06 0.23 0.29 0.29-2.2 1.89-4.81 3.15-3.19 3.05-7.27 4.75-0.98 0.42-0.32-0.42 2.67-3.41 6.9-4.77 1.28-0.41 5.21-3z" fill="#fff"/>
<path d="m308.12 540.07q-3.09 1.8-6.13 3.68-0.35 0.22-0.66 0.18-0.82-0.08 0.07-1.03 2.71-2.89 6.33-4.62 2.01-0.96 1.06 1.08a1.78 1.51-6.2 0 1-0.67 0.71z" fill="#fff"/>
<path d="m288.75 538.96q0.23 0.06 0.29 0.29-0.85 1.54-2.48 1.68-0.56 0.05-0.29-0.44 0.74-1.39 2.48-1.53z" fill="#fff"/>
<path d="m284.94 541.32 0.16 0.16a0.39 0.26-52.4 0 1-0.03 0.4q-1.54 2.52-4.15 3.61-2.25 0.95-3.32 1.84-3.69 3.06-6.41 4.11-2.24 0.85-0.94-0.97 0.28-0.39 0.71-0.73 2.62-2.12 5.7-3.4 2.27-0.94 3.88-2.25 1.78-1.43 3.69-2.69a0.67 0.37-35.3 0 1 0.71-0.08z" fill="#fff"/>
<path d="m299 544.82q0.57 0.07-0.1 0.57-5.58 4.22-11 6.37-2.06 0.81-0.31-0.55 5.25-4.1 11.04-6.33 0.2-0.08 0.37-0.06z" fill="#fff"/>
<ellipse transform="translate(304.06,550.25) rotate(-30.5)" rx="3.51" ry=".52" fill="#fff"/>
<ellipse transform="translate(314.48 552.02) rotate(-4)" rx="1.53" ry="1.02" fill="#fff"/>
<rect transform="translate(280.38,556.23) rotate(-31.3)" x="-6.21" y="-.69" width="12.42" height="1.38" rx=".62" fill="#fff"/>
<path d="m311.23 553.42q1.25 0.42 0.12 1.31a0.79 0.79-29.5 0 1-1.23-0.34q-0.56-1.52 1.11-0.97z" fill="#fff"/>
<path d="m297.98 554.97q-0.43 0.14-0.58-0.2a0.55 0.46-23.5 0 1 0.33-0.65q1.08-0.43 0.75 0.37-0.16 0.37-0.5 0.48z" fill="#fff"/>
<path d="m307.31 556.03q0.43 0.05 0.34 0.52-0.05 0.24-0.31 0.43-2.22 1.72-0.81-0.49a0.95 0.68-66.1 0 1 0.78-0.46z" fill="#fff"/>
<path d="m321.4 557.85q-1.19 0.77-2.59 1.02-0.57 0.1-0.14-0.29 1.13-1.01 2.64-1.03 0.57-0.01 0.09 0.3z" fill="#fff"/>
<ellipse transform="translate(302.3 558.93) rotate(-26)" rx="1.47" ry=".89" fill="#fff"/>
<path d="m299.04 560.93q0.28-0.04 0.48 0.07a0.37 0.3-46 0 1-0.05 0.57q-1.48 1.08-1.1-0.05a0.88 0.75-81.8 0 1 0.67-0.59z" fill="#fff"/>
<path d="m313.76 561.53q0.59 0.4-0.03 0.89a0.47 0.43-31.2 0 1-0.71-0.14q-0.12-0.28 0-0.56a0.52 0.48 28.3 0 1 0.74-0.19z" fill="#fff"/>
<ellipse transform="translate(278 562.5)" rx=".74" ry=".52" fill="#fff"/>
<path d="m297.01 562.64q0.09 0.33-0.04 0.64a0.83 0.68 11.1 0 1-0.77 0.41q-1.42-0.08-2.85-1.13-0.24-0.17 0.04-0.27 1.42-0.55 2.94-0.23a0.94 0.73 2.8 0 1 0.68 0.58z" fill="#fff"/>
<path d="m290.06 563.69q3.46 2.67-0.75 3.2a0.58 0.5 80.3 0 1-0.56-0.46l-0.53-2.39a0.74 0.5 73.4 0 1 0.24-0.77q0.67-0.31 1.6 0.42z" fill="#fff"/>
<path d="m283.5 566.75 3.5 0.43a1.6 1.54-19.5 0 1 0.88 0.4q2.15 1.99-2.21 0.73a2.16 2.13-54.3 0 0-1.84 0.31q-1.87 1.33-1.83-1.12a1.36 0.84 5.2 0 1 1.5-0.75z" fill="#fff"/>
<path d="m254.31 628.31q3.97-0.74 3.69 2.63a0.72 0.7-5.4 0 1-0.53 0.62q-8.42 2.27-16.72 4.94-26.86 5.63-53.5 12.25-17.92 4.07-35.75 8.5-8.96 1.5-16.19 4.56-6.12 2.59-10.83 4.04a1.27 0.94-32.9 0 1-0.93-0.06q-1.3-0.73-0.36-2.35 1.74-3.01 5.93-4.24 11.51-3.39 18.63-4.95 11.11-2.43 16.67-4.13 9.43-2.89 19.14-4.56 4.77-0.82 16.15-3.58 6.18-1.49 16.16-3.56 12.94-2.67 20.63-5.42 7.86-2.81 17.81-4.69z" fill="#fff"/>
</svg>
